<svg preserveAspectRatio="none" width="100%" height="100%" overflow="visible" style="display: block;" viewBox="0 0 18 18" fill="none" xmlns="http://www.w3.org/2000/svg">
<g id="crown">
<path id="Vector" d="M12.75 16.5H5.25C4.9425 16.5 4.6875 16.245 4.6875 15.9375C4.6875 15.63 4.9425 15.375 5.25 15.375H12.75C13.0575 15.375 13.3125 15.63 13.3125 15.9375C13.3125 16.245 13.0575 16.5 12.75 16.5Z" fill="var(--fill-0, #FF9900)"/>
<path id="Vector_2" d="M15.2612 4.1393L12.2612 6.2843C11.8637 6.5693 11.2937 6.3968 11.1212 5.9393L9.7037 2.1593C9.4637 1.5068 8.5412 1.5068 8.3012 2.1593L6.8762 5.9318C6.7037 6.3968 6.1412 6.5693 5.7437 6.2768L2.7437 4.1318C2.1437 3.7118 1.3487 4.3043 1.5962 5.0018L4.7162 13.7393C4.8212 14.0393 5.1062 14.2343 5.4212 14.2343H12.5687C12.8837 14.2343 13.1687 14.0318 13.2737 13.7393L16.3937 5.0018C16.6487 4.3043 15.8537 3.7118 15.2612 4.1393ZM10.8737 11.0618H7.1237C6.8162 11.0618 6.5612 10.8068 6.5612 10.4993C6.5612 10.1918 6.8162 9.9368 7.1237 9.9368H10.8737C11.1812 9.9368 11.4362 10.1918 11.4362 10.4993C11.4362 10.8068 11.1812 11.0618 10.8737 11.0618Z" fill="var(--fill-0, #FF9900)"/>
<g id="Vector_3" opacity="0">
</g>
</g>
</svg>
