<svg preserveAspectRatio="none" width="100%" height="100%" overflow="visible" style="display: block;" viewBox="0 0 18 18" fill="none" xmlns="http://www.w3.org/2000/svg">
<g id="message-question">
<g id="Vector" opacity="0">
</g>
<path id="Vector_2" d="M12.75 1.82227H5.25C3 1.82227 1.5 3.32227 1.5 5.57227V10.0723C1.5 12.3223 3 13.8223 5.25 13.8223V15.4198C5.25 16.0198 5.9175 16.3798 6.4125 16.0423L9.75 13.8223H12.75C15 13.8223 16.5 12.3223 16.5 10.0723V5.57227C16.5 3.32227 15 1.82227 12.75 1.82227ZM9 10.9498C8.685 10.9498 8.4375 10.6948 8.4375 10.3873C8.4375 10.0798 8.685 9.82476 9 9.82476C9.315 9.82476 9.5625 10.0798 9.5625 10.3873C9.5625 10.6948 9.315 10.9498 9 10.9498ZM9.945 7.83726C9.6525 8.03226 9.5625 8.15976 9.5625 8.36976V8.52726C9.5625 8.83476 9.3075 9.08976 9 9.08976C8.6925 9.08976 8.4375 8.83476 8.4375 8.52726V8.36976C8.4375 7.49976 9.075 7.07226 9.315 6.90726C9.5925 6.71976 9.6825 6.59226 9.6825 6.39726C9.6825 6.02226 9.375 5.71476 9 5.71476C8.625 5.71476 8.3175 6.02226 8.3175 6.39726C8.3175 6.70476 8.0625 6.95976 7.755 6.95976C7.4475 6.95976 7.1925 6.70476 7.1925 6.39726C7.1925 5.39976 8.0025 4.58977 9 4.58977C9.9975 4.58977 10.8075 5.39976 10.8075 6.39726C10.8075 7.25226 10.1775 7.67976 9.945 7.83726Z" fill="var(--fill-0, #22BCB7)"/>
</g>
</svg>
