<svg preserveAspectRatio="none" width="100%" height="100%" overflow="visible" style="display: block;" viewBox="0 0 18 18" fill="none" xmlns="http://www.w3.org/2000/svg">
<g id="setting-2">
<path id="Vector" d="M15.075 6.91459C13.7175 6.91459 13.1625 5.95459 13.8375 4.77709C14.2275 4.09459 13.995 3.22459 13.3125 2.83459L12.015 2.09209C11.4225 1.73959 10.6575 1.94959 10.305 2.54209L10.2225 2.68459C9.5475 3.86209 8.4375 3.86209 7.755 2.68459L7.6725 2.54209C7.335 1.94959 6.57 1.73959 5.9775 2.09209L4.68 2.83459C3.9975 3.22459 3.765 4.10209 4.155 4.78459C4.8375 5.95459 4.2825 6.91459 2.925 6.91459C2.145 6.91459 1.5 7.55209 1.5 8.33959V9.65959C1.5 10.4396 2.1375 11.0846 2.925 11.0846C4.2825 11.0846 4.8375 12.0446 4.155 13.2221C3.765 13.9046 3.9975 14.7746 4.68 15.1646L5.9775 15.9071C6.57 16.2596 7.335 16.0496 7.6875 15.4571L7.77 15.3146C8.445 14.1371 9.555 14.1371 10.2375 15.3146L10.32 15.4571C10.6725 16.0496 11.4375 16.2596 12.03 15.9071L13.3275 15.1646C14.01 14.7746 14.2425 13.8971 13.8525 13.2221C13.17 12.0446 13.725 11.0846 15.0825 11.0846C15.8625 11.0846 16.5075 10.4471 16.5075 9.65959V8.33959C16.5 7.55959 15.8625 6.91459 15.075 6.91459ZM9 11.4371C7.6575 11.4371 6.5625 10.3421 6.5625 8.99959C6.5625 7.65709 7.6575 6.56209 9 6.56209C10.3425 6.56209 11.4375 7.65709 11.4375 8.99959C11.4375 10.3421 10.3425 11.4371 9 11.4371Z" fill="var(--fill-0, #2E96FF)"/>
<g id="Vector_2" opacity="0">
</g>
</g>
</svg>
