<svg preserveAspectRatio="none" width="100%" height="100%" overflow="visible" style="display: block;" viewBox="0 0 18 18" fill="none" xmlns="http://www.w3.org/2000/svg">
<g id="user-edit">
<g id="Vector" opacity="0">
</g>
<path id="Vector_2" d="M8.99883 1.49941C6.92883 1.49941 5.24883 3.17941 5.24883 5.24941C5.24883 7.31941 6.92883 8.99941 8.99883 8.99941C11.0688 8.99941 12.7488 7.31941 12.7488 5.24941C12.7488 3.17941 11.0688 1.49941 8.99883 1.49941ZM10.6263 4.88191L8.60133 6.90691C8.52633 6.98191 8.36883 7.05691 8.26383 7.07941L7.49133 7.18441C7.20633 7.22191 7.01133 7.02691 7.05633 6.74941L7.16883 5.97691C7.18383 5.87191 7.25883 5.71441 7.34133 5.63941L9.36633 3.61441C9.71133 3.26941 10.1238 3.10441 10.6338 3.61441C11.1363 4.13191 10.9713 4.53691 10.6263 4.88191Z" fill="var(--fill-0, #5373AF)"/>
<path id="Vector_3" d="M9.0007 10.4994C5.2432 10.4994 2.1832 13.0194 2.1832 16.1244C2.1832 16.3344 2.3482 16.4994 2.5582 16.4994H15.4432C15.6532 16.4994 15.8182 16.3344 15.8182 16.1244C15.8182 13.0194 12.7582 10.4994 9.0007 10.4994Z" fill="var(--fill-0, #5373AF)"/>
</g>
</svg>
