<svg preserveAspectRatio="none" width="100%" height="100%" overflow="visible" style="display: block;" viewBox="0 0 48 48" fill="none" xmlns="http://www.w3.org/2000/svg">
<g id="user-cirlce-add">
<g id="Vector" opacity="0">
</g>
<path id="Vector_2" d="M43.94 4.66C42.5 3.02 40.36 2 38 2C35.76 2 33.72 2.92 32.26 4.42C31.42 5.28 30.78 6.32 30.4 7.48C30.14 8.28 30 9.12 30 10C30 11.5 30.42 12.92 31.16 14.12C31.56 14.8 32.08 15.42 32.68 15.94C34.08 17.22 35.94 18 38 18C38.88 18 39.72 17.86 40.5 17.58C42.34 17 43.88 15.74 44.84 14.12C45.26 13.44 45.58 12.66 45.76 11.86C45.92 11.26 46 10.64 46 10C46 7.96 45.22 6.08 43.94 4.66ZM40.98 11.46H39.5V13.02C39.5 13.84 38.82 14.52 38 14.52C37.18 14.52 36.5 13.84 36.5 13.02V11.46H35.02C34.2 11.46 33.52 10.78 33.52 9.96C33.52 9.14 34.2 8.46 35.02 8.46H36.5V7.04C36.5 6.22 37.18 5.54 38 5.54C38.82 5.54 39.5 6.22 39.5 7.04V8.46H40.98C41.8 8.46 42.48 9.14 42.48 9.96C42.48 10.78 41.82 11.46 40.98 11.46Z" fill="var(--fill-0, #D4D9E2)"/>
<path id="Vector_3" d="M44 24C44 21.38 43.5 18.86 42.56 16.56C41.94 17 41.24 17.34 40.5 17.58C40.28 17.66 40.06 17.72 39.82 17.78C40.58 19.7 41 21.8 41 24C41 28.64 39.12 32.86 36.08 35.94C35.5 35.2 34.76 34.52 33.88 33.94C28.46 30.3 19.58 30.3 14.12 33.94C13.24 34.52 12.52 35.2 11.92 35.94C8.88 32.86 7 28.64 7 24C7 14.62 14.62 7 24 7C26.18 7 28.28 7.42 30.2 8.18C30.26 7.94 30.32 7.72 30.4 7.48C30.64 6.74 30.98 6.06 31.44 5.44C29.14 4.5 26.62 4 24 4C12.98 4 4 12.98 4 24C4 29.8 6.5 35.02 10.46 38.68C10.46 38.7 10.46 38.7 10.44 38.72C10.64 38.92 10.88 39.08 11.08 39.26C11.2 39.36 11.3 39.46 11.42 39.54C11.78 39.84 12.18 40.12 12.56 40.4C12.7 40.5 12.82 40.58 12.96 40.68C13.34 40.94 13.74 41.18 14.16 41.4C14.3 41.48 14.46 41.58 14.6 41.66C15 41.88 15.42 42.08 15.86 42.26C16.02 42.34 16.18 42.42 16.34 42.48C16.78 42.66 17.22 42.82 17.66 42.96C17.82 43.02 17.98 43.08 18.14 43.12C18.62 43.26 19.1 43.38 19.58 43.5C19.72 43.54 19.86 43.58 20.02 43.6C20.58 43.72 21.14 43.8 21.72 43.86C21.8 43.86 21.88 43.88 21.96 43.9C22.64 43.96 23.32 44 24 44C24.68 44 25.36 43.96 26.02 43.9C26.1 43.9 26.18 43.88 26.26 43.86C26.84 43.8 27.4 43.72 27.96 43.6C28.1 43.58 28.24 43.52 28.4 43.5C28.88 43.38 29.38 43.28 29.84 43.12C30 43.06 30.16 43 30.32 42.96C30.76 42.8 31.22 42.66 31.64 42.48C31.8 42.42 31.96 42.34 32.12 42.26C32.54 42.08 32.96 41.88 33.38 41.66C33.54 41.58 33.68 41.48 33.82 41.4C34.22 41.16 34.62 40.94 35.02 40.68C35.16 40.6 35.28 40.5 35.42 40.4C35.82 40.12 36.2 39.84 36.56 39.54C36.68 39.44 36.78 39.34 36.9 39.26C37.12 39.08 37.34 38.9 37.54 38.72C37.54 38.7 37.54 38.7 37.52 38.68C41.5 35.02 44 29.8 44 24Z" fill="var(--fill-0, #D4D9E2)"/>
<path id="Vector_4" d="M24 13.8594C19.86 13.8594 16.5 17.2194 16.5 21.3594C16.5 25.4194 19.68 28.7194 23.9 28.8394C23.96 28.8394 24.04 28.8394 24.08 28.8394C24.12 28.8394 24.18 28.8394 24.22 28.8394C24.24 28.8394 24.26 28.8394 24.26 28.8394C28.3 28.6994 31.48 25.4194 31.5 21.3594C31.5 17.2194 28.14 13.8594 24 13.8594Z" fill="var(--fill-0, #D4D9E2)"/>
</g>
</svg>
