<svg preserveAspectRatio="none" width="100%" height="100%" overflow="visible" style="display: block;" viewBox="0 0 280 98" fill="none" xmlns="http://www.w3.org/2000/svg">
<g id="Group 2610054">
<path id="Vector 1196" d="M19.605 12.5C10.5566 12.5 13.5727 65 0 65V98H280V15.5C266.427 15.5 272.962 76.5 258.887 76.5C244.811 76.5 251.346 48.5 236.768 48.5C222.19 48.5 228.725 0.5 215.153 0.5C201.58 0.5 208.618 87.5 193.034 87.5C177.451 87.5 185.494 70.5 171.418 70.5C157.343 70.5 161.364 25.2017 149.3 25.2017C137.235 25.2017 140.754 36 128.187 36C115.619 36 121.149 59.5 109.257 59.5C97.3643 59.5 97.0197 18.5 85.4578 18.5C73.8959 18.5 73.3932 55.5 63.842 55.5C54.2908 55.5 52.7828 25.2017 41.7235 25.2017C30.6643 25.2017 28.6535 12.5 19.605 12.5Z" fill="url(#paint0_linear_58_6213)"/>
<path id="Vector 1196_2" d="M0 65C13.5727 65 10.5566 12.5 19.605 12.5C28.6535 12.5 30.6643 25.2017 41.7235 25.2017C52.7828 25.2017 54.2908 55.5 63.842 55.5C73.3932 55.5 73.8959 18.5 85.4578 18.5C97.0197 18.5 97.3643 59.5 109.257 59.5C121.149 59.5 115.619 36 128.187 36C140.754 36 137.235 25.2017 149.3 25.2017C161.364 25.2017 157.343 70.5 171.418 70.5C185.494 70.5 177.451 87.5 193.034 87.5C208.618 87.5 201.58 0.5 215.153 0.5C228.725 0.5 222.19 48.5 236.768 48.5C251.346 48.5 244.811 76.5 258.887 76.5C272.962 76.5 266.427 15.5 280 15.5" stroke="var(--stroke-0, #2E96FF)"/>
</g>
<defs>
<linearGradient id="paint0_linear_58_6213" x1="140" y1="0.5" x2="140" y2="98.25" gradientUnits="userSpaceOnUse">
<stop stop-color="#CFE7FF"/>
<stop offset="1" stop-color="white"/>
</linearGradient>
</defs>
</svg>
