<svg preserveAspectRatio="none" width="100%" height="100%" overflow="visible" style="display: block;" viewBox="0 0 18 16" fill="none" xmlns="http://www.w3.org/2000/svg">
<path id="Vector" d="M16.6925 1.31C15.8425 0.46 14.7225 0 13.5225 0C12.3225 0 11.2025 0.47 10.3525 1.31L8.9925 2.67L7.6325 1.31C5.9025 -0.43 3.0525 -0.43 1.3125 1.31C-0.4375 3.06 -0.4375 5.9 1.3125 7.64L8.86108 15.1886C8.93918 15.2667 9.06582 15.2667 9.14392 15.1886L16.6925 7.64C17.5425 6.79 18.0025 5.67 18.0025 4.47C18.0025 3.27 17.5325 2.15 16.6925 1.3V1.31ZM8.9725 13.47L2.2325 6.72C0.9925 5.48 0.9925 3.47 2.2325 2.23C2.8525 1.61 3.6625 1.3 4.4825 1.3C5.3025 1.3 6.1125 1.61 6.7325 2.23L8.87108 4.36858C8.94918 4.44668 9.07582 4.44668 9.15392 4.36858L11.2925 2.23C12.4925 1.03 14.5825 1.03 15.7825 2.23C16.3825 2.83 16.7125 3.63 16.7125 4.48C16.7125 5.33 16.3825 6.13 15.7825 6.73L9.0125 13.51L8.9925 13.48L8.9725 13.47Z" fill="var(--fill-0, #7E89A0)"/>
</svg>
