<svg preserveAspectRatio="none" width="100%" height="100%" overflow="visible" style="display: block;" viewBox="0 0 14 14" fill="none" xmlns="http://www.w3.org/2000/svg">
<g id="Search">
<path id="Ellipse_739 (Stroke)" d="M11.985 6.49219C11.9849 3.45892 9.52548 1 6.49219 1C3.45898 1.0001 1.0001 3.45898 1 6.49219C1 9.52548 3.45892 11.9849 6.49219 11.985C9.52554 11.985 11.985 9.52554 11.985 6.49219ZM12.985 6.49219C12.985 10.0778 10.0778 12.985 6.49219 12.985C2.90663 12.9849 0 10.0778 0 6.49219C9.99871e-05 2.9067 2.9067 9.99846e-05 6.49219 0C10.0778 0 12.9849 2.90663 12.985 6.49219Z" fill="var(--fill-0, #2B2F36)"/>
<path id="Line_181 (Stroke)" d="M10.306 10.6183C10.4889 10.435 10.7787 10.4231 10.9753 10.5832L11.0131 10.617L13.3627 12.9601L13.3972 12.9985C13.5574 13.1947 13.5461 13.4845 13.3633 13.6678C13.1806 13.8508 12.8912 13.8626 12.6947 13.7029L12.6563 13.6684L10.3073 11.3253L10.2728 11.2876C10.1122 11.0915 10.1233 10.8017 10.306 10.6183Z" fill="var(--fill-0, #2B2F36)"/>
</g>
</svg>
