<svg preserveAspectRatio="none" width="100%" height="100%" overflow="visible" style="display: block;" viewBox="0 0 295 98" fill="none" xmlns="http://www.w3.org/2000/svg">
<g id="Group 2610054">
<path id="Vector 1196" d="M20.6553 12.5C11.1221 12.5 14.2998 65 0 65V98H295V15.5C280.7 15.5 287.585 76.5 272.756 76.5C257.926 76.5 264.811 48.5 249.452 48.5C234.093 48.5 240.978 0.5 226.679 0.5C212.379 0.5 219.794 87.5 203.375 87.5C186.957 87.5 195.431 70.5 180.601 70.5C165.772 70.5 170.009 25.2017 157.298 25.2017C144.587 25.2017 148.294 36 135.054 36C121.813 36 127.639 59.5 115.11 59.5C102.58 59.5 102.217 18.5 90.0359 18.5C77.8546 18.5 77.325 55.5 67.2621 55.5C57.1993 55.5 55.6104 25.2017 43.9587 25.2017C32.307 25.2017 30.1885 12.5 20.6553 12.5Z" fill="url(#paint0_linear_109_6247)"/>
<path id="Vector 1196_2" d="M0 65C14.2998 65 11.1221 12.5 20.6553 12.5C30.1885 12.5 32.307 25.2017 43.9587 25.2017C55.6104 25.2017 57.1993 55.5 67.2621 55.5C77.325 55.5 77.8546 18.5 90.0359 18.5C102.217 18.5 102.58 59.5 115.11 59.5C127.639 59.5 121.813 36 135.054 36C148.294 36 144.587 25.2017 157.298 25.2017C170.009 25.2017 165.772 70.5 180.601 70.5C195.431 70.5 186.957 87.5 203.375 87.5C219.794 87.5 212.379 0.5 226.679 0.5C240.978 0.5 234.093 48.5 249.452 48.5C264.811 48.5 257.926 76.5 272.756 76.5C287.585 76.5 280.7 15.5 295 15.5" stroke="var(--stroke-0, #2E96FF)"/>
</g>
<defs>
<linearGradient id="paint0_linear_109_6247" x1="147.5" y1="0.5" x2="147.5" y2="98.25" gradientUnits="userSpaceOnUse">
<stop stop-color="#CFE7FF"/>
<stop offset="1" stop-color="white"/>
</linearGradient>
</defs>
</svg>
