<svg preserveAspectRatio="none" width="100%" height="100%" overflow="visible" style="display: block;" viewBox="0 0 12 12" fill="none" xmlns="http://www.w3.org/2000/svg">
<path id="Icon" d="M11.9241 8.94546V10.7441C11.9247 10.9111 11.8905 11.0764 11.8236 11.2294C11.7568 11.3824 11.6586 11.5197 11.5356 11.6326C11.4126 11.7455 11.2673 11.8314 11.1091 11.8849C10.9509 11.9384 10.7833 11.9583 10.617 11.9432C8.7721 11.7428 6.9999 11.1123 5.44285 10.1026C3.99422 9.18208 2.76603 7.95389 1.84551 6.50526C0.832243 4.94113 0.201667 3.16032 0.00486643 1.30709C-0.0101162 1.1413 0.0095879 0.974195 0.062724 0.81643C0.11586 0.658665 0.201264 0.513693 0.313498 0.390742C0.425732 0.267792 0.562338 0.169559 0.714617 0.102296C0.866896 0.0350331 1.03151 0.0002149 1.19799 5.81285e-05H2.99666C3.28763 -0.00280563 3.56971 0.100231 3.79033 0.289964C4.01095 0.479696 4.15505 0.743178 4.19577 1.0313C4.27169 1.60691 4.41248 2.17209 4.61546 2.71605C4.69613 2.93065 4.71359 3.16387 4.66577 3.38809C4.61795 3.6123 4.50686 3.81811 4.34566 3.98112L3.58422 4.74256C4.43773 6.24358 5.68055 7.4864 7.18157 8.3399L7.94301 7.57847C8.10602 7.41727 8.31183 7.30618 8.53604 7.25836C8.76025 7.21054 8.99348 7.228 9.20807 7.30866C9.75204 7.51164 10.3172 7.65244 10.8928 7.72835C11.1841 7.76944 11.4501 7.91614 11.6402 8.14055C11.8303 8.36495 11.9314 8.65142 11.9241 8.94546Z" fill="var(--fill-0, #97A2B9)"/>
</svg>
