<svg width="24" height="24" viewBox="0 0 24 24" fill="none" xmlns="http://www.w3.org/2000/svg">
<path fill-rule="evenodd" clip-rule="evenodd" d="M16 12C16 14.2091 14.2091 16 12 16C9.79086 16 8 14.2091 8 12C8 9.79086 9.79086 8 12 8C14.2091 8 16 9.79086 16 12ZM14.7 12C14.7 13.4912 13.4912 14.7 12 14.7C10.5088 14.7 9.3 13.4912 9.3 12C9.3 10.5088 10.5088 9.3 12 9.3C13.4912 9.3 14.7 10.5088 14.7 12Z" fill="#B6BECE"/>
<path fill-rule="evenodd" clip-rule="evenodd" d="M11.9979 5C16.3365 5 19.9797 7.97738 20.9958 12.0004C19.9796 16.0232 16.3365 19.0004 11.9979 19.0004C7.6593 19.0004 4.01607 16.0231 3 12.0001C4.01618 7.97723 7.65933 5 11.9979 5ZM11.9979 17.7004C8.38418 17.7004 5.32867 15.2972 4.34793 12.0001C5.32875 8.70311 8.38419 6.3 11.9979 6.3C15.6116 6.3 18.6671 8.70323 19.6479 12.0003C18.667 15.2973 15.6116 17.7004 11.9979 17.7004Z" fill="#B6BECE"/>
</svg>
