<svg width="24" height="24" viewBox="0 0 24 24" fill="none" xmlns="http://www.w3.org/2000/svg">
<path fill-rule="evenodd" clip-rule="evenodd" d="M19.5404 20.4593L16.7649 17.6838L16.7635 17.6846L15.8108 16.7319L15.8122 16.7311L14.3314 15.2503L14.3302 15.2512L13.3923 14.3134L13.3937 14.3126L9.68705 10.6059L9.68622 10.6073L8.74841 9.66951L8.74933 9.66823L7.07761 7.99651L7.07638 7.99748L6.15141 7.0725L6.15262 7.07152L3.54038 4.45928L4.45962 3.54004L7.23379 6.31421C8.62642 5.47951 10.2561 4.99966 11.9979 4.99966C16.3365 4.99966 19.9797 7.97703 20.9958 12C20.4988 13.9675 19.3735 15.6849 17.8457 16.9261L20.4596 19.54L19.5404 20.4593ZM19.6479 12C19.171 13.6028 18.2039 14.9943 16.9208 16.0012L15.2507 14.3311C15.7223 13.6747 16 12.8696 16 11.9997C16 9.79052 14.2091 7.99966 12 7.99966C11.1301 7.99966 10.325 8.27738 9.66857 8.74899L8.18655 7.26697C9.31928 6.65011 10.6179 6.29966 11.9979 6.29966C15.6116 6.29966 18.6671 8.70289 19.6479 12ZM14.7 11.9997C14.7 12.5096 14.5586 12.9865 14.313 13.3934L10.6063 9.68671C11.0131 9.44103 11.4901 9.29966 12 9.29966C13.4912 9.29966 14.7 10.5085 14.7 11.9997Z" fill="#B6BECE"/>
<path d="M5.20134 7.96091C4.15698 9.08374 3.38749 10.4657 3 11.9997C4.01607 16.0227 7.6593 19.0001 11.9979 19.0001C13.2525 19.0001 14.4489 18.7511 15.5404 18.3L14.5303 17.2898C13.7345 17.5559 12.8829 17.7001 11.9979 17.7001C8.38418 17.7001 5.32867 15.2969 4.34793 11.9997C4.69787 10.8234 5.3119 9.76091 6.12115 8.88072L5.20134 7.96091Z" fill="#B6BECE"/>
<path d="M8.15026 10.9098C8.05238 11.2563 8 11.6219 8 11.9997C8 14.2088 9.79086 15.9997 12 15.9997C12.3778 15.9997 12.7434 15.9473 13.0898 15.8494L8.15026 10.9098Z" fill="#B6BECE"/>
</svg>
