<svg width="60" height="60" viewBox="0 0 60 60" fill="none" xmlns="http://www.w3.org/2000/svg">
<path d="M53.7546 31.3073V40.7484C53.7546 50.1339 43.8433 55.9998 35.7153 51.307L18.1113 39.1033L18.1115 25.916L40.8161 39.0246V39.0207L53.7546 31.3073Z" fill="url(#paint0_linear_1_3949)"/>
<path d="M6.24545 28.6936L6.24545 19.2525C6.24545 9.86711 16.1567 4.00122 24.2847 8.69395L41.8887 20.8976L41.8885 34.085L19.1839 20.9764L19.1839 20.9803L6.24545 28.6936Z" fill="url(#paint1_linear_1_3949)"/>
<path d="M54 40.7939C53.9999 50.1792 43.8399 56.045 35.7119 51.3525L34.1816 50.4658L34.1855 50.457L34.8457 50.8379C37.4996 52.3679 40.8151 50.4529 40.8154 47.3896L40.8154 10.0557L54 2.34473V40.7939Z" fill="#22BCB7"/>
<path d="M5.99903 19.207C5.99903 9.82159 16.1591 3.9557 24.2871 8.64844L25.8164 9.53516L25.8125 9.54297L25.1523 9.16211C22.4984 7.63232 19.1827 9.54794 19.1826 12.6113L19.1826 49.9443L5.99902 57.6562L5.99903 19.207Z" fill="#22BCB7"/>
<defs>
<linearGradient id="paint0_linear_1_3949" x1="32.2291" y1="39.4373" x2="18.1113" y2="39.4373" gradientUnits="userSpaceOnUse">
<stop stop-color="#6ACFCC"/>
<stop offset="0.682692" stop-color="#6ACFCC" stop-opacity="0"/>
</linearGradient>
<linearGradient id="paint1_linear_1_3949" x1="27.7709" y1="20.5636" x2="41.8887" y2="20.5636" gradientUnits="userSpaceOnUse">
<stop stop-color="#6ACFCC"/>
<stop offset="0.682692" stop-color="#6ACFCC" stop-opacity="0"/>
</linearGradient>
</defs>
</svg>
