<svg preserveAspectRatio="none" width="100%" height="100%" overflow="visible" style="display: block;" viewBox="0 0 24 24" fill="none" xmlns="http://www.w3.org/2000/svg">
<g id="icon/price">
<circle id="Ellipse 1988" cx="12" cy="12" r="12" fill="var(--fill-0, #52A8FF)" fill-opacity="0.35"/>
<g id="Cart">
<g id="Union">
<path d="M6.5176 6.47046L7.12209 6.59155C7.80373 6.72804 8.31642 7.2934 8.38576 7.98511L8.43459 8.47632H16.2461C17.3876 8.47657 18.2251 9.54954 17.9483 10.657L17.3018 13.241C17.0294 14.3292 16.0516 15.0925 14.9297 15.0925H9.75588C8.95494 15.0925 8.28002 14.4942 8.18459 13.699L7.61525 8.95483L7.52736 8.07104C7.4958 7.75663 7.26205 7.49923 6.95217 7.43726L6.34865 7.31714C6.11505 7.2704 5.9632 7.04293 6.00978 6.80933C6.0565 6.57577 6.28404 6.42398 6.5176 6.47046Z" fill="var(--fill-0, #2E96FF)"/>
<path d="M6.5176 6.47046L6.54403 6.33849L6.54387 6.33845L6.5176 6.47046ZM7.12209 6.59155L7.09565 6.72352L7.09566 6.72353L7.12209 6.59155ZM8.38576 7.98511L8.51969 7.97179L8.51968 7.97168L8.38576 7.98511ZM8.43459 8.47632L8.30066 8.48963L8.31271 8.61091H8.43459V8.47632ZM16.2461 8.47632L16.2461 8.34173H16.2461V8.47632ZM17.9483 10.657L18.0788 10.6896L18.0788 10.6896L17.9483 10.657ZM17.3018 13.241L17.4323 13.2736L17.4323 13.2736L17.3018 13.241ZM8.18459 13.699L8.31822 13.6829L8.31822 13.6829L8.18459 13.699ZM7.61525 8.95483L7.48129 8.96816L7.48162 8.97087L7.61525 8.95483ZM7.52736 8.07104L7.66129 8.05773L7.66128 8.0576L7.52736 8.07104ZM6.95217 7.43726L6.97856 7.30528L6.97844 7.30525L6.95217 7.43726ZM6.34865 7.31714L6.32225 7.44912L6.32238 7.44914L6.34865 7.31714ZM6.00978 6.80933L5.8778 6.78293L5.87779 6.783L6.00978 6.80933ZM6.5176 6.47046L6.49116 6.60243L7.09565 6.72352L7.12209 6.59155L7.14853 6.45958L6.54403 6.33849L6.5176 6.47046ZM7.12209 6.59155L7.09566 6.72353C7.71933 6.84841 8.1884 7.36567 8.25184 7.99853L8.38576 7.98511L8.51968 7.97168C8.44445 7.22113 7.88814 6.60768 7.14851 6.45958L7.12209 6.59155ZM8.38576 7.98511L8.25183 7.99842L8.30066 8.48963L8.43459 8.47632L8.56852 8.463L8.51969 7.97179L8.38576 7.98511ZM8.43459 8.47632V8.61091H16.2461V8.47632V8.34173H8.43459V8.47632ZM16.2461 8.47632L16.2461 8.61091C17.3 8.61115 18.0733 9.60183 17.8177 10.6243L17.9483 10.657L18.0788 10.6896C18.3769 9.49725 17.4751 8.342 16.2461 8.34173L16.2461 8.47632ZM17.9483 10.657L17.8177 10.6243L17.1712 13.2083L17.3018 13.241L17.4323 13.2736L18.0788 10.6896L17.9483 10.657ZM17.3018 13.241L17.1712 13.2083C16.9139 14.2367 15.9898 14.9579 14.9297 14.9579V15.0925V15.2271C16.1133 15.2271 17.145 14.4218 17.4323 13.2736L17.3018 13.241ZM14.9297 15.0925V14.9579H9.75588V15.0925V15.2271H14.9297V15.0925ZM9.75588 15.0925V14.9579C9.02302 14.9579 8.40553 14.4105 8.31822 13.6829L8.18459 13.699L8.05095 13.715C8.15451 14.5779 8.88687 15.2271 9.75588 15.2271V15.0925ZM8.18459 13.699L8.31822 13.6829L7.74889 8.9388L7.61525 8.95483L7.48162 8.97087L8.05095 13.715L8.18459 13.699ZM7.61525 8.95483L7.74919 8.94151L7.66129 8.05773L7.52736 8.07104L7.39343 8.08436L7.48132 8.96815L7.61525 8.95483ZM7.52736 8.07104L7.66128 8.0576C7.6238 7.68427 7.34636 7.37884 6.97856 7.30528L6.95217 7.43726L6.92577 7.56924C7.17774 7.61963 7.36779 7.82899 7.39344 8.08449L7.52736 8.07104ZM6.95217 7.43726L6.97844 7.30525L6.37492 7.18513L6.34865 7.31714L6.32238 7.44914L6.92589 7.56926L6.95217 7.43726ZM6.34865 7.31714L6.37506 7.18516C6.21425 7.15299 6.10974 6.99632 6.14178 6.83565L6.00978 6.80933L5.87779 6.783C5.81666 7.08953 6.01585 7.38782 6.32225 7.44912L6.34865 7.31714ZM6.00978 6.80933L6.14176 6.83572C6.1739 6.67502 6.33061 6.57048 6.49132 6.60246L6.5176 6.47046L6.54387 6.33845C6.23748 6.27748 5.93909 6.47651 5.8778 6.78293L6.00978 6.80933Z" fill="var(--stroke-0, #2E96FF)"/>
</g>
<circle id="Ellipse 39" cx="9.7627" cy="16.8632" r="1" fill="var(--fill-0, #2E96FF)" stroke="var(--stroke-0, #2E96FF)" stroke-width="0.311904"/>
<circle id="Ellipse 40" cx="15.7621" cy="16.8632" r="1" fill="var(--fill-0, #2E96FF)" stroke="var(--stroke-0, #2E96FF)" stroke-width="0.311904"/>
</g>
</g>
</svg>
