<svg preserveAspectRatio="none" width="100%" height="100%" overflow="visible" style="display: block;" viewBox="0 0 24 24" fill="none" xmlns="http://www.w3.org/2000/svg">
<g id="icon/price">
<circle id="Ellipse 1988" cx="12" cy="12" r="12" fill="var(--fill-0, #657085)" fill-opacity="0.22"/>
<g id="Group 2610057">
<path id="Vector 1197 (Stroke)" d="M17.9392 12.3269V14.6867C17.9392 17.0325 15.4619 18.4987 13.4304 17.3257L9.03033 14.2755L9.03038 10.9794L14.7053 14.2558V14.2548L17.9392 12.3269Z" fill="url(#paint0_linear_108_6223)"/>
<path id="Vector 1197 (Stroke)_2" d="M6.06505 11.6732L6.06505 9.31343C6.06506 6.96759 8.54231 5.50144 10.5739 6.67436L14.9739 9.72462L14.9738 13.0207L9.29896 9.7443L9.29896 9.74528L6.06505 11.6732Z" fill="url(#paint1_linear_108_6223)"/>
<path id="Subtract" d="M18.0015 14.6977C18.0014 17.0435 15.4617 18.5093 13.4302 17.3364L13.0484 17.1147V17.1128L13.2144 17.2085C13.8777 17.5906 14.7065 17.1117 14.7066 16.3462L14.7066 7.01412L18.0015 5.08736L18.0015 14.6977Z" fill="var(--fill-0, #7E89A0)"/>
<path id="Subtract_2" d="M6.00039 9.30179C6.00051 6.95604 8.54017 5.49022 10.5717 6.66312L10.9535 6.8848L10.9535 6.88675L10.7875 6.79105C10.1242 6.40882 9.29539 6.88778 9.29531 7.65335L9.29531 16.9854L6.00039 18.9121L6.00039 9.30179Z" fill="var(--fill-0, #7E89A0)"/>
</g>
</g>
<defs>
<linearGradient id="paint0_linear_108_6223" x1="12.559" y1="14.359" x2="9.03033" y2="14.359" gradientUnits="userSpaceOnUse">
<stop stop-color="#A0A9BC"/>
<stop offset="0.682692" stop-color="#A0A9BC" stop-opacity="0"/>
</linearGradient>
<linearGradient id="paint1_linear_108_6223" x1="11.4452" y1="9.64113" x2="14.9739" y2="9.64113" gradientUnits="userSpaceOnUse">
<stop stop-color="#A0A9BC"/>
<stop offset="0.682692" stop-color="#A0A9BC" stop-opacity="0"/>
</linearGradient>
</defs>
</svg>
