<svg preserveAspectRatio="none" width="100%" height="100%" overflow="visible" style="display: block;" viewBox="0 0 7 7" fill="none" xmlns="http://www.w3.org/2000/svg">
<path id="Vector" d="M5.6011 3.49211C5.60117 3.90932 5.47747 4.31718 5.24565 4.66406C5.01383 5.01094 4.68432 5.28125 4.29881 5.44078C3.91334 5.60052 3.48914 5.64233 3.0799 5.5609C2.67066 5.47947 2.29477 5.27848 1.9998 4.98334C1.70483 4.68821 1.50405 4.31221 1.42285 3.90292C1.34165 3.49363 1.38369 3.06946 1.54365 2.68407C1.64973 2.42817 1.80517 2.19567 2.00111 1.99984C2.19705 1.80402 2.42964 1.64872 2.68561 1.5428C2.94158 1.43688 3.2159 1.38242 3.49292 1.38253C3.76994 1.38264 4.04422 1.43733 4.3001 1.54345C4.68537 1.70318 5.01461 1.97357 5.24618 2.32044C5.47776 2.6673 5.60127 3.07505 5.6011 3.49211Z" fill="var(--fill-0, #22BCB7)" stroke="var(--stroke-1, #7AD7D4)" stroke-width="2.76506" stroke-linecap="round" stroke-linejoin="round"/>
</svg>
