<svg preserveAspectRatio="none" width="100%" height="100%" overflow="visible" style="display: block;" viewBox="0 0 41 55" fill="none" xmlns="http://www.w3.org/2000/svg">
<g id="Group">
<path id="Vector" d="M19.8979 54.489C18.4843 53.789 19.5311 50.3038 17.7014 50.226C17.0603 50.1988 14.9498 51.0065 14.6656 50.3376C14.493 49.9311 14.2435 48.2604 14.7093 48.0397C15.5936 47.6212 18.1108 48.2185 18.1454 46.582C18.1622 45.7945 17.3786 43.1954 18.1662 42.7205C18.62 42.4468 20.0675 42.7832 20.624 42.7949C23.7898 42.8617 26.9186 42.6208 30.0312 42.0828C31.5668 41.8175 33.0858 41.4368 34.6002 41.078C35.9312 41.1135 35.2178 44.1567 36.0551 44.9204C36.8138 45.612 38.6183 44.6689 39.6286 44.9107C39.8875 45.2642 40.0998 46.0149 39.9608 46.4234C39.7273 47.1083 36.9461 46.6364 36.4091 47.6591C35.7451 48.9232 37.6427 50.6435 35.7633 51.5347C32.486 53.0894 26.7983 54.0842 23.1688 54.3663L22.9572 54.489H19.8979Z" fill="var(--fill-0, #2E96FF)"/>
<path id="Vector_2" d="M40.1155 8.62053V9.15249C39.8415 9.43323 39.9728 9.86323 39.516 9.95111C38.3409 10.1768 36.2388 8.83486 35.7625 10.5844C35.3323 12.1641 36.1155 13.3901 33.9362 13.546C29.9654 13.8305 25.2154 13.435 21.3356 12.5683C20.6955 12.4254 18.848 12.0558 18.3828 11.7972C16.9588 11.006 19.3262 7.59082 17.2473 7.08234C16.6847 6.94482 14.7512 6.97299 14.5084 6.49604C14.3663 6.21631 14.5746 4.58923 14.8416 4.43158C15.3803 4.11429 17.2879 4.65027 18.0987 4.49665C19.5919 4.21357 18.5286 0.20306 20.3284 0.000136345C24.1259 1.4793 28.1343 2.47715 32.2015 2.90345C33.251 3.01347 34.3718 2.9494 35.3908 3.03929C37.9019 3.26134 36.1296 5.28856 36.3997 6.95119C36.6401 8.43002 39.4821 7.43083 40.1149 8.62087L40.1155 8.62053Z" fill="var(--fill-0, #2E96FF)"/>
<path id="Vector_3" d="M16.1055 33.3492C17.7787 32.9886 16.3836 29.1988 17.2924 28.5538C17.7468 28.2315 19.5823 28.7406 20.2456 28.812C24.8118 29.3017 29.3902 29.1719 33.9208 28.4277C35.409 29.0146 34.1066 31.4343 34.969 32.3768C35.6313 33.1006 38.3991 32.4181 38.6591 32.6072C38.8357 32.7357 38.831 34.3259 38.7692 34.399C38.4491 34.7753 35.634 34.1645 35.0748 35.1597C34.4689 36.2374 35.6891 38.1623 34.4313 38.7711C33.8292 39.0625 31.8664 39.4016 31.0943 39.5569C27.2337 40.3324 22.6956 40.7845 18.7678 40.3941C16.841 40.2026 17.4244 38.4538 17.2246 37.0175C16.927 34.879 14.3214 36.501 13.3777 35.9436C12.8921 35.6568 13.2726 34.1867 12.9864 33.6688C12.9562 33.5581 13.1228 33.3495 13.1799 33.3495C13.9248 33.3495 15.4906 33.4823 16.1062 33.3495L16.1055 33.3492Z" fill="var(--fill-0, #2E96FF)"/>
<path id="Vector_4" d="M38.7837 20.3211V22.1823H35.392C35.3624 22.1823 34.9533 22.4955 34.9208 22.5432C34.2531 23.5199 35.2748 25.8215 33.9004 26.1428C32.2101 26.5379 29.1911 26.77 27.4165 26.8411C25.2559 26.9276 22.7907 26.8123 20.6443 26.5527C20.1113 26.4883 17.5521 26.1327 17.3036 25.9033C16.5583 25.2157 17.3113 22.8705 16.8213 21.9981C16.2483 20.9781 13.8221 21.6758 13.2989 21.2646C12.9761 21.0107 12.8968 18.798 13.718 18.7228C14.5207 18.7758 16.2903 19.1428 16.9059 18.5957C17.5014 18.0668 17.2139 15.8759 17.4581 15.0259C17.5729 14.6254 17.8823 14.0992 18.3645 14.1924C20.8603 14.7874 23.3842 15.4251 25.9488 15.6669C27.9118 15.852 29.8605 15.8024 31.795 15.795C32.4274 15.7927 34.0912 15.6837 34.5681 15.8262C35.8339 16.2042 34.0677 19.673 35.5837 20.1292C35.6949 20.1627 36.643 20.3207 36.7223 20.3207H38.7841L38.7837 20.3211Z" fill="var(--fill-0, #2E96FF)"/>
<path id="Vector_5" d="M0.973021 26.3346C1.62894 26.2028 5.30486 26.2105 5.93928 26.3615C7.24945 26.6724 7.18093 28.4796 5.71863 28.6852C4.84608 28.808 1.96412 28.8076 1.10736 28.6654C-0.381812 28.4182 -0.311282 26.5929 0.973021 26.3346Z" fill="var(--fill-0, #515968)"/>
<path id="Vector_6" d="M4.16415 18.3521C4.55408 18.2669 4.7969 18.3243 5.1257 18.5315C5.45047 18.7361 8.44091 21.7263 8.64981 22.0544C9.32051 23.1082 8.17357 24.252 7.07701 23.6268L3.52838 20.1281C3.18312 19.5274 3.42393 18.5134 4.16415 18.3521Z" fill="var(--fill-0, #515968)"/>
<path id="Vector_7" d="M7.22069 31.2508C8.31255 30.9238 9.18409 31.8448 8.70584 32.8685L5.12631 36.4681C4.06132 37.146 3.03025 36.0831 3.47257 34.948C4.23563 34.4389 6.61347 31.4329 7.22069 31.2511V31.2508Z" fill="var(--fill-0, #515968)"/>
</g>
</svg>
