<svg preserveAspectRatio="none" width="100%" height="100%" overflow="visible" style="display: block;" viewBox="0 0 43 34" fill="none" xmlns="http://www.w3.org/2000/svg">
<path id="Vector" d="M29.2124 5.36319L29.2284 5.40409H41.8155C41.9178 5.40409 42.0159 5.44474 42.0883 5.5171C42.1607 5.58945 42.2013 5.68759 42.2013 5.78991V33.0727C42.2013 33.1751 42.1607 33.2732 42.0883 33.3455C42.0159 33.4179 41.9178 33.4585 41.8155 33.4586H0.385823C0.283496 33.4586 0.185361 33.4179 0.113005 33.3455C0.0406493 33.2732 0 33.1751 0 33.0727V5.78991C0 5.68759 0.0406493 5.58945 0.113005 5.5171C0.185361 5.44474 0.283496 5.40409 0.385823 5.40409H12.9742L12.9901 5.36319L14.9874 0.245899V0.245641C15.0153 0.173576 15.0643 0.111593 15.128 0.0677758C15.1916 0.0239587 15.267 0.000340315 15.3443 5.08817e-07H26.8547C26.9324 -0.000125824 27.0083 0.0232758 27.0724 0.0671233C27.1365 0.110971 27.1858 0.173208 27.2139 0.245641V0.245899L29.2124 5.36319Z" fill="url(#paint0_linear_58_6138)"/>
<defs>
<linearGradient id="paint0_linear_58_6138" x1="21.1007" y1="0" x2="21.1007" y2="33.4586" gradientUnits="userSpaceOnUse">
<stop stop-color="#9EBDBB"/>
<stop offset="1" stop-color="#677183"/>
</linearGradient>
</defs>
</svg>
