<svg preserveAspectRatio="none" width="100%" height="100%" overflow="visible" style="display: block;" viewBox="0 0 23 23" fill="none" xmlns="http://www.w3.org/2000/svg">
<g id="Group" style="mix-blend-mode:multiply" opacity="0.5">
<path id="Vector" d="M11.1495 0.460844C13.9835 0.463466 16.7006 1.59042 18.7045 3.59435C20.7085 5.59828 21.8354 8.31544 21.838 11.1494C21.838 12.7299 21.4876 14.2907 20.8118 15.7194C20.1361 17.1481 19.1519 18.4092 17.9302 19.4118C16.7085 20.4144 15.2797 21.1337 13.7466 21.5177C12.2135 21.9017 10.6143 21.9409 9.06423 21.6326C7.51414 21.3243 6.05171 20.676 4.78227 19.7346C3.51283 18.7931 2.46797 17.5818 1.72295 16.188C0.977921 14.7941 0.55127 13.2524 0.47372 11.6739C0.39617 10.0953 0.669651 8.51921 1.27447 7.05906C2.08354 5.10602 3.45355 3.43674 5.21127 2.26228C6.96899 1.08782 9.03549 0.460918 11.1495 0.460844Z" fill="url(#paint0_linear_58_6179)"/>
<path id="Vector_2" d="M11.1495 0.460844C13.9835 0.463466 16.7006 1.59042 18.7045 3.59435C20.7085 5.59828 21.8354 8.31544 21.838 11.1494C21.838 12.7299 21.4876 14.2907 20.8118 15.7194C20.1361 17.1481 19.1519 18.4092 17.9302 19.4118C16.7085 20.4144 15.2797 21.1337 13.7466 21.5177C12.2135 21.9017 10.6143 21.9409 9.06423 21.6326C7.51414 21.3243 6.05171 20.676 4.78227 19.7346C3.51283 18.7931 2.46797 17.5818 1.72295 16.188C0.977921 14.7941 0.55127 13.2524 0.47372 11.6739C0.39617 10.0953 0.669651 8.51921 1.27447 7.05906C2.08354 5.10602 3.45355 3.43674 5.21127 2.26228C6.96899 1.08782 9.03549 0.460918 11.1495 0.460844Z" stroke="url(#paint1_linear_58_6179)" stroke-width="0.921688"/>
</g>
<defs>
<linearGradient id="paint0_linear_58_6179" x1="11.1494" y1="0.460844" x2="11.1494" y2="21.838" gradientUnits="userSpaceOnUse">
<stop stop-color="#9EBDBB"/>
<stop offset="1" stop-color="#677183"/>
</linearGradient>
<linearGradient id="paint1_linear_58_6179" x1="11.1494" y1="0.460844" x2="11.1494" y2="21.838" gradientUnits="userSpaceOnUse">
<stop stop-color="#9EBDBB"/>
<stop offset="1" stop-color="#677183"/>
</linearGradient>
</defs>
</svg>
