<svg preserveAspectRatio="none" width="100%" height="100%" overflow="visible" style="display: block;" viewBox="0 0 14 14" fill="none" xmlns="http://www.w3.org/2000/svg">
<path id="Vector" d="M6.99981 0C5.61536 0.00012446 4.26203 0.410737 3.11094 1.17992C1.95985 1.9491 1.06268 3.04232 0.532877 4.32134C0.00307236 5.60036 -0.135578 7.00775 0.134455 8.36556C0.404489 9.72337 1.07108 10.9706 2.04995 11.9496C3.0289 12.9287 4.27622 13.5954 5.63414 13.8655C6.99207 14.1356 8.3996 13.9969 9.67871 13.467C10.9578 12.9372 12.0511 12.04 12.8203 10.8889C13.5895 9.73776 14 8.3844 14 6.99994C13.9981 5.14402 13.26 3.36466 11.9476 2.05231C10.6352 0.739988 8.85579 0.00189459 6.99981 0Z" fill="var(--fill-0, #D7F9F9)"/>
</svg>
