<svg preserveAspectRatio="none" width="100%" height="100%" overflow="visible" style="display: block;" viewBox="0 0 22 22" fill="none" xmlns="http://www.w3.org/2000/svg">
<path id="Vector" d="M10.7528 0C8.62602 4.60415e-05 6.54704 0.630752 4.77874 1.81236C3.01043 2.99397 1.63223 4.67341 0.818412 6.6383C0.00459329 8.60319 -0.208289 10.7653 0.206688 12.8512C0.621664 14.937 1.64586 16.853 3.14976 18.3568C4.65375 19.8605 6.56986 20.8845 8.65578 21.2992C10.7417 21.714 12.9038 21.5009 14.8686 20.6869C16.8334 19.8729 18.5127 18.4944 19.6941 16.726C20.8755 14.9575 21.5059 12.8784 21.5057 10.7516C21.5019 7.90102 20.3678 5.16829 18.352 3.15275C16.3362 1.13721 13.6034 0.00340284 10.7528 0Z" fill="url(#paint0_linear_58_6163)"/>
<defs>
<linearGradient id="paint0_linear_58_6163" x1="10.7528" y1="0" x2="10.7528" y2="21.5057" gradientUnits="userSpaceOnUse">
<stop stop-color="#4E7575"/>
<stop offset="1" stop-color="#2E323A"/>
</linearGradient>
</defs>
</svg>
