<svg preserveAspectRatio="none" width="100%" height="100%" overflow="visible" style="display: block;" viewBox="0 0 11 55" fill="none" xmlns="http://www.w3.org/2000/svg">
<g id="Subtract" style="mix-blend-mode:multiply" opacity="0.5">
<path d="M5.1832 42.7201C5.63718 42.4468 7.08449 42.7831 7.64109 42.7949C7.87407 42.7998 8.10687 42.7994 8.33945 42.801C8.82806 46.888 9.54606 50.8025 10.5477 54.3335C10.425 54.3442 10.3044 54.3566 10.1859 54.3658L9.97468 54.4891H6.91545C5.50194 53.7892 6.54748 50.3045 4.7183 50.2262C4.07663 50.1995 1.96763 51.0058 1.68332 50.3374C1.51069 49.9309 1.26095 48.2599 1.72678 48.0392C2.6116 47.6211 5.1284 48.2179 5.16298 46.5818C5.1797 45.7942 4.39602 43.1954 5.1832 42.7201ZM4.31 28.5539C4.7649 28.232 6.59994 28.7401 7.26311 28.8116C7.33515 28.8193 7.40735 28.8254 7.47939 28.8328C7.52539 32.7331 7.71521 36.6877 8.09184 40.528C7.30683 40.5113 6.53507 40.4681 5.78554 40.3936C3.85878 40.2021 4.44209 38.4533 4.24228 37.017C3.94453 34.8792 1.33869 36.5006 0.394744 35.9437C-0.090656 35.6568 0.28957 34.1867 0.00362334 33.6688C-0.0266034 33.5581 0.140573 33.3494 0.197668 33.3494C0.942875 33.3495 2.50804 33.4821 3.1235 33.3494H3.12248C4.79511 32.9883 3.40125 29.1988 4.31 28.5539ZM5.38229 14.1925C6.24981 14.3994 7.12097 14.6103 7.99583 14.809C7.6372 18.5399 7.48064 22.486 7.47131 26.5265C6.68641 26.4232 4.54839 26.1117 4.32111 25.9029C3.57597 25.2153 4.32884 22.8703 3.83903 21.9978C3.26616 20.978 0.839688 21.6749 0.315914 21.2641C-0.00650442 21.0086 -0.0854567 18.7974 0.735333 18.7223C1.53803 18.7753 3.30703 19.1424 3.92292 18.5959C4.51809 18.0666 4.23161 15.8751 4.47574 15.0253C4.59075 14.6249 4.90026 14.0993 5.38229 14.1925ZM7.34598 0C8.43825 0.425435 9.54847 0.809461 10.672 1.15315C9.53419 4.51213 8.75036 8.36979 8.24243 12.5432C7.52293 12.3862 5.8422 12.0423 5.40049 11.7973C3.97655 11.0061 6.34279 7.59143 4.26452 7.08263C3.70196 6.94514 1.76883 6.97221 1.52566 6.49544C1.38402 6.21449 1.59231 4.58926 1.85917 4.43169C2.39835 4.11483 4.30592 4.64996 5.11649 4.49638C6.60849 4.21198 5.54648 0.202886 7.34598 0Z" fill="#52A8FF"/>
</g>
</svg>
